<svg width="110" height="112" viewBox="0 0 110 112" fill="none" xmlns="http://www.w3.org/2000/svg">
    <path d="M69.0909 47.8981C68.4928 45.9556 66.6633 44.6787 64.6641 44.6787H64.6525L55.5162 44.7015L46.3746 26.4941C45.4554 24.6633 43.5439 23.9252 41.6346 23.9506C41.4753 23.9529 24.4527 23.9521 24.3016 23.9491C22.3047 23.91 20.32 24.7373 19.4478 26.6836L4.16551 60.7739C3.09637 63.1583 4.12822 65.9737 6.47048 67.0623C8.81012 68.1505 11.5768 67.1018 12.6466 64.7155L19.9647 48.3914C19.9647 52.6162 19.858 102.08 19.858 106.305C19.858 109.541 22.5098 112.148 25.7224 111.993C28.7307 111.849 31.0454 109.21 31.0454 106.144V74.8722C31.0454 73.7969 31.9016 72.9251 32.9576 72.9251C34.0137 72.9251 34.8699 73.7969 34.8699 74.8722V106.144C34.8699 109.21 37.1846 111.849 40.1929 111.993C43.4051 112.147 46.0573 109.541 46.0573 106.305C46.0573 64.8377 45.9499 46.5009 45.9499 46.5009L48.5174 51.6149C49.3143 53.2021 50.9174 54.201 52.6679 54.201H52.6791L64.6757 54.1714C67.7324 54.1638 70.0952 51.1612 69.0909 47.8981Z" fill="black"/>
    <path d="M32.9573 21.8236C38.8754 21.8236 43.6759 16.9415 43.6759 10.912C43.6759 4.88132 38.8754 0 32.9573 0C27.0373 0 22.2361 4.88132 22.2361 10.9116C22.2361 16.9411 27.0373 21.8236 32.9573 21.8236Z" fill="black"/>
    <path d="M103.46 66.4297H64.6638C63.1188 66.4297 61.8669 67.7044 61.8669 69.2774C61.8669 70.8501 63.1188 72.1251 64.6638 72.1251H65.0154L69.254 106.431C69.5873 109.126 71.8386 111.148 74.5068 111.148H93.617C96.2852 111.148 98.5365 109.126 98.8695 106.431L103.108 72.1251H103.46C105.005 72.1251 106.257 70.8501 106.257 69.2774C106.257 67.7044 105.005 66.4297 103.46 66.4297ZM78.2982 89.2128C78.491 90.7733 77.4047 92.1975 75.8724 92.3938C75.7538 92.409 75.636 92.4166 75.5196 92.4166C74.1305 92.4166 72.9264 91.3641 72.7481 89.9243L70.5495 72.1255H76.1871L78.2982 89.2128Z" fill="black"/>
    <path d="M75.1051 61.5089C75.164 62.0116 75.4612 62.4528 75.9001 62.6902C76.3394 62.9278 76.8645 62.9316 77.3064 62.6996L84.0721 59.1567C84.6792 58.8389 85.0033 58.1475 84.8638 57.4671L83.5139 50.8776C83.4218 50.4288 83.1391 50.0453 82.7423 49.8296C82.3455 49.6139 81.8749 49.5885 81.458 49.7605L75.1584 52.361C74.5241 52.6226 74.1407 53.2848 74.2217 53.9766L75.1051 61.5089Z" fill="black"/>
    </svg>