<svg width="73" height="65" viewBox="0 0 73 65" fill="none" xmlns="http://www.w3.org/2000/svg">
<g id="fishColor2">
<g id="Group">
<g id="Group_2">
<path id="Vector" d="M25.8066 11.5527H25.8152C33.2187 11.5546 42.5509 15.2596 49.0554 18.3422C51.2269 19.3718 53.7562 18.4895 54.9197 16.5598C56.7162 13.5802 60.235 11.5527 64.3027 11.5527H66.4414V13.457C66.4414 18.1505 62.6217 22.0276 57.603 22.8122V23.1448C62.6217 23.9294 66.4414 27.8065 66.4414 32.5V34.4043H64.3027C60.235 34.4043 56.7162 32.3769 54.9197 29.3973C53.7562 27.4676 51.2269 26.5853 49.0554 27.6148C42.3771 30.7798 33.1323 34.4043 25.8066 34.4043C22.6614 34.4043 19.9096 33.734 17.5471 32.7196V13.2374C19.9096 12.223 22.6614 11.5527 25.8066 11.5527Z" fill="#FFF2A0"/>
<path id="Vector_2" d="M17.5471 13.2374C10.1516 16.4163 6.55859 22.9785 6.55859 22.9785C6.55859 22.9785 10.1516 29.5407 17.5471 32.7196C21.2185 30.7087 23.668 27.0981 23.668 22.9785C23.668 18.8588 21.2185 15.2483 17.5471 13.2374Z" fill="#FCE8D0"/>
<path id="Vector_3" d="M36.2662 8.88799C37.575 8.16309 39.122 7.74414 40.7773 7.74414H45.0547C45.0547 10.6196 43.8627 13.2463 41.8937 15.2547L25.8152 11.5527C29.5251 11.5527 33.1152 10.6323 36.2662 8.88799Z" fill="#FF7D97"/>
</g>
<g id="Group_3">
<path id="Vector_4" d="M15.1133 24.248C14.3258 24.248 13.6875 23.6797 13.6875 22.9785C13.6875 22.2774 14.3258 21.709 15.1133 21.709C15.9007 21.709 16.5391 22.2774 16.5391 22.9785C16.5391 23.6797 15.9007 24.248 15.1133 24.248Z" fill="black"/>
<path id="Vector_5" d="M30.7969 22.9785C30.7969 22.2774 31.4352 21.709 32.2227 21.709H36.5C37.2875 21.709 37.9258 22.2774 37.9258 22.9785C37.9258 23.6797 37.2875 24.248 36.5 24.248H32.2227C31.4352 24.248 30.7969 23.6797 30.7969 22.9785Z" fill="black"/>
<path id="Vector_6" d="M39.3516 32.8809C38.5641 32.8809 37.9258 32.3125 37.9258 31.6113C37.9258 30.9102 38.5641 30.3418 39.3516 30.3418C40.139 30.3418 40.7773 30.9102 40.7773 31.6113C40.7773 32.3125 40.139 32.8809 39.3516 32.8809Z" fill="black"/>
<path id="Vector_7" d="M67.8672 32.5V34.4043C67.8672 35.1055 67.2289 35.6738 66.4414 35.6738H64.3027C59.8512 35.6738 55.7744 33.4989 53.6634 29.9978C52.8269 28.6103 51.1341 28.0673 49.7253 28.7356C48.4238 29.3523 47.1224 29.9404 45.8571 30.4832C45.1475 30.7875 44.2955 30.5222 43.9537 29.8906C43.6119 29.2589 43.9099 28.5002 44.6193 28.1958C45.8503 27.6677 47.1174 27.0952 48.3852 26.4944C51.1773 25.1705 54.5992 26.1821 56.1758 28.7969C57.7892 31.4726 60.9032 33.1348 64.3027 33.1348H65.0156V32.5C65.0156 28.4975 61.7945 25.0891 57.3563 24.3952C56.6745 24.2887 56.1771 23.7612 56.1771 23.1448V22.8122C56.1771 22.1959 56.6744 21.6684 57.3563 21.5618C61.7945 20.868 65.0156 17.4595 65.0156 13.457V12.8223H64.3027C60.9032 12.8223 57.7892 14.4845 56.1758 17.1603C54.5992 19.7752 51.1771 20.7868 48.3855 19.4629C42.0767 16.4733 32.9296 12.8242 25.8146 12.8223H25.8066C23.96 12.8223 22.1569 13.0754 20.4213 13.5756C23.3838 15.9589 25.0938 19.3342 25.0938 22.9785C25.0938 26.6228 23.3838 29.9981 20.4213 32.3814C22.1571 32.8816 23.96 33.1348 25.8066 33.1348C27.8736 33.1348 30.2616 32.8203 32.9048 32.2003C33.6661 32.0215 34.4462 32.4264 34.6468 33.1044C34.8474 33.7824 34.3928 34.4769 33.6313 34.6555C30.7513 35.3312 28.1185 35.6738 25.8066 35.6738C16.5518 35.6738 8.71965 29.8205 5.27696 23.5348C5.08476 23.1837 5.08476 22.7732 5.27696 22.4221C9.09891 15.444 17.0857 10.2832 25.8066 10.2832C25.8081 10.2832 25.8095 10.2835 25.8109 10.2835C25.8123 10.2835 25.8138 10.2832 25.8152 10.2832C29.2369 10.2832 32.5905 9.42792 35.5131 7.81003C37.0904 6.93634 38.9109 6.47461 40.7773 6.47461H45.0547C45.8421 6.47461 46.4805 7.04298 46.4805 7.74414C46.4805 10.2484 45.6505 12.681 44.1162 14.7465C45.9354 15.4873 47.8149 16.3161 49.7257 17.2216C51.1341 17.8895 52.827 17.3466 53.6636 15.9593C55.7744 12.4582 59.8512 10.2832 64.3027 10.2832H66.4414C67.2289 10.2832 67.8672 10.8516 67.8672 11.5527V13.457C67.8672 17.5434 65.3028 21.1565 61.4191 22.9785C65.3028 24.8005 67.8672 28.4138 67.8672 32.5ZM8.18027 22.98C9.15708 24.4995 12.24 28.7602 17.4551 31.2515C20.4665 29.3434 22.2422 26.3002 22.2422 22.9785C22.2422 19.6569 20.4667 16.6137 17.4553 14.7057C12.2593 17.1901 9.16064 21.4617 8.18027 22.98ZM40.7773 9.01367C39.4437 9.01367 38.1441 9.34299 37.019 9.96607C36.0316 10.5126 35.0006 10.9816 33.9383 11.3747C36.2712 11.9373 38.7801 12.7166 41.4533 13.7092C42.5824 12.3247 43.3001 10.7096 43.5397 9.01367H40.7773Z" fill="black"/>
</g>
</g>
</g>
</svg>
