<svg width="116" height="118" viewBox="0 0 116 118" fill="none" xmlns="http://www.w3.org/2000/svg">
<path d="M78.9248 94.4031C80.8017 94.4031 82.3232 92.8554 82.3232 90.9461C82.3232 89.0368 80.8017 87.4891 78.9248 87.4891C77.0479 87.4891 75.5264 89.0368 75.5264 90.9461C75.5264 92.8554 77.0479 94.4031 78.9248 94.4031Z" fill="black"/>
<path d="M93.0183 79.6991C94.8952 79.6991 96.4167 78.1513 96.4167 76.2421C96.4167 74.3328 94.8952 72.785 93.0183 72.785C91.1414 72.785 89.6199 74.3328 89.6199 76.2421C89.6199 78.1513 91.1414 79.6991 93.0183 79.6991Z" fill="black"/>
<path d="M75.3113 65.7303C77.1882 65.7303 78.7097 64.1825 78.7097 62.2733C78.7097 60.364 77.1882 58.8162 75.3113 58.8162C73.4344 58.8162 71.9128 60.364 71.9128 62.2733C71.9128 64.1825 73.4344 65.7303 75.3113 65.7303Z" fill="black"/>
<path d="M28.8792 111.086C16.7031 111.086 6.79688 101.009 6.79688 88.6228M87.1208 6.91406C99.2969 6.91406 109.203 16.9911 109.203 29.3772M9.62819 14.7319L9.5208 14.8411L9.4313 14.9654C6.51872 19.0112 4.79688 23.9964 4.79688 29.3772V88.6228C4.79688 102.081 15.5664 113.086 28.8792 113.086H87.1208C92.4346 113.086 97.3516 111.326 101.334 108.359L101.458 108.267L101.566 108.157L106.372 103.268L106.479 103.159L106.569 103.035C109.481 98.9888 111.203 94.0036 111.203 88.6228V29.3772C111.203 15.9189 100.434 4.91406 87.1208 4.91406H28.8792C23.5654 4.91406 18.6484 6.67406 14.6656 9.64119L14.5422 9.73317L14.4343 9.84296L9.62819 14.7319ZM28.3285 32.5357L28.1617 32.5974L28.0084 32.6875C20.9513 36.8376 16.2004 44.5919 16.2004 53.4457V69.1828C16.2004 75.7436 21.4301 81.1199 27.9691 81.1199C28.2961 81.1199 28.6202 81.1063 28.941 81.0795V95.1029C28.941 101.654 34.1864 107.04 40.7094 107.04C43.0033 107.04 45.2013 106.376 47.0849 105.14C48.9182 106.34 51.1044 107.04 53.4497 107.04C59.9727 107.04 65.2184 101.655 65.2184 95.1029V69.1973V59.4195V53.3484H78.9305C85.4535 53.3484 90.6992 47.9629 90.6992 41.4113C90.6992 34.8597 85.4537 29.4744 78.9305 29.4744H61.0857C61.4066 28.2615 61.5782 26.9875 61.5782 25.6742C61.5782 17.5914 55.1079 10.9599 47.0795 10.9599C39.051 10.9599 32.5807 17.5914 32.5807 25.6742C32.5807 27.4173 32.8821 29.0924 33.4343 30.6475L28.3285 32.5357ZM29.8868 36.2242L36.5999 33.7415L39.2151 33.2928L37.8857 30.8403C37.0555 29.3085 36.5807 27.5497 36.5807 25.6742C36.5807 19.7358 41.3243 14.9599 47.0795 14.9599C52.8346 14.9599 57.5782 19.7358 57.5782 25.6742C57.5782 27.4398 57.1554 29.1022 56.4118 30.5711L54.9421 33.4744H58.1962H78.9305C83.1804 33.4744 86.6992 37.0042 86.6992 41.4113C86.6992 45.8185 83.1802 49.3484 78.9305 49.3484H63.2184H61.2184V51.3484V59.4195V69.1973V95.1029C61.2184 99.5101 57.6994 103.04 53.4497 103.04C51.5282 103.04 49.7655 102.325 48.4011 101.13L47.0818 99.9741L45.7638 101.131C44.3527 102.37 42.5845 103.04 40.7094 103.04C36.4598 103.04 32.941 99.5101 32.941 95.1029V78.6498V75.8949L30.3215 76.7481C29.5811 76.9893 28.7914 77.1199 27.9691 77.1199C23.7048 77.1199 20.2004 73.6006 20.2004 69.1828V53.4457C20.2004 46.112 24.0993 39.6971 29.8868 36.2242ZM42.5439 36.3887H42.4064L42.2701 36.4075L33.8078 37.5769L33.5419 37.6137L33.2952 37.7192C27.2419 40.3079 22.9973 46.3883 22.9973 53.4457V69.1828C22.9973 71.921 25.1846 74.2059 27.9691 74.2059C30.7446 74.2059 32.941 71.9217 32.941 69.1828V53.4457C32.941 52.6087 33.5992 51.9887 34.3394 51.9887C35.0796 51.9887 35.7378 52.6087 35.7378 53.4457V95.1029C35.7378 97.842 37.9342 100.126 40.7094 100.126C43.4898 100.126 45.6813 97.8451 45.6813 95.1029V71.96C45.6813 71.1229 46.3395 70.5029 47.0797 70.5029C47.8199 70.5029 48.4781 71.1229 48.4781 71.96V95.1029C48.4781 97.8416 50.674 100.126 53.4497 100.126C56.2252 100.126 58.4215 97.8418 58.4215 95.1029V62.2833V52.5056V47.8914C58.4215 47.0544 59.0798 46.4344 59.82 46.4344H78.9305C81.706 46.4344 83.9023 44.1502 83.9023 41.4113C83.9023 38.6722 81.7055 36.3885 78.9305 36.3885L42.5439 36.3887ZM87.1208 109.086H28.8792C17.8398 109.086 8.79688 99.9367 8.79688 88.6228V29.3772C8.79688 24.9151 10.2054 20.7887 12.5906 17.4243L17.1763 12.7595C20.4772 10.3382 24.5175 8.91406 28.8792 8.91406H87.1208C98.1602 8.91406 107.203 18.0633 107.203 29.3772V88.6228C107.203 93.0849 105.795 97.2113 103.409 100.576L98.8237 105.241C95.5227 107.662 91.4825 109.086 87.1208 109.086ZM78.9305 40.3885C79.4326 40.3885 79.9023 40.817 79.9023 41.4113C79.9023 42.006 79.4325 42.4344 78.9305 42.4344H59.82C56.8065 42.4344 54.4215 44.91 54.4215 47.8914V52.5056V62.2833V95.1029C54.4215 95.6976 53.9517 96.126 53.4497 96.126C52.948 96.126 52.4781 95.6978 52.4781 95.1029V71.96C52.4781 68.9786 50.0932 66.5029 47.0797 66.5029C44.0662 66.5029 41.6813 68.9786 41.6813 71.96V95.1029C41.6813 95.7017 41.2155 96.126 40.7094 96.126C40.2077 96.126 39.7378 95.6978 39.7378 95.1029V53.4457C39.7378 50.4643 37.3529 47.9887 34.3394 47.9887C31.3259 47.9887 28.941 50.4643 28.941 53.4457V69.1828C28.941 69.7774 28.4711 70.2059 27.9691 70.2059C27.4626 70.2059 26.9973 69.7814 26.9973 69.1828V53.4457C26.9973 48.113 30.1478 43.5283 34.6312 41.5012L42.6815 40.3887L78.9305 40.3885ZM43.3778 25.6742C43.3778 23.5482 45.0723 21.874 47.0797 21.874C49.087 21.874 50.7816 23.5482 50.7816 25.6742C50.7816 27.8002 49.087 29.4744 47.0797 29.4744C45.0723 29.4744 43.3778 27.8002 43.3778 25.6742ZM47.0797 17.874C42.799 17.874 39.3778 21.4038 39.3778 25.6742C39.3778 29.9446 42.799 33.4744 47.0797 33.4744C51.3604 33.4744 54.7816 29.9446 54.7816 25.6742C54.7816 21.4038 51.3604 17.874 47.0797 17.874ZM28.8792 2H87.1208C101.908 2 114 14.2509 114 29.3772V88.6228C114 103.749 101.908 116 87.1208 116H28.8792C14.092 116 2 103.749 2 88.6228V29.3772C2 14.2509 14.092 2 28.8792 2Z" stroke="black" stroke-width="2"/>
</svg>
