<svg width="70" height="132" viewBox="0 0 70 132" fill="none" xmlns="http://www.w3.org/2000/svg">
        <g clip-path="url(#clip0)">
        <path d="M103.658 0.446777H23.8247C20.0561 0.446777 17.001 3.50189 17.001 7.27048C17.001 11.0393 20.0561 14.0942 23.8247 14.0942L38.289 14.1103C40.3992 14.1103 42.1103 15.8211 42.1103 17.9316C42.1103 20.042 40.3992 21.7528 38.289 21.7528H26.1789V50.7339H23.8247C20.0561 50.7339 17.001 53.7885 17.001 57.5576C17.001 61.3262 20.0561 64.3813 23.8247 64.3813L38.289 64.401C40.3992 64.401 42.1103 66.1118 42.1103 68.2223C42.1103 70.3327 40.3992 72.0435 38.289 72.0435H26.1789V101.02H23.8247C20.0561 101.02 17.001 104.075 17.001 107.844C17.001 111.613 20.0561 114.668 23.8247 114.668H83.933C76.4766 108.572 71.7077 99.3059 71.7077 88.9461C71.7077 81.3 76.4624 71.1698 86.2444 57.9755C92.9927 48.8727 99.6488 41.7105 99.9292 41.4103L101.304 39.9353V14.0942H103.658C107.427 14.0942 110.482 11.0393 110.482 7.27048C110.482 3.50189 107.427 0.446777 103.658 0.446777Z" fill="black"/>
        </g>
        <defs>
        <clipPath id="clip0">
        <rect width="132" height="132" fill="white"/>
        </clipPath>
        </defs>
        </svg>