<svg width="131" height="145" viewBox="0 0 131 145" fill="none" xmlns="http://www.w3.org/2000/svg">
<g id="SchoolFish2">
<g id="fish color">
<g id="Group">
<g id="Group_2">
<path id="Vector" d="M118.98 66.9666H118.976C115.528 66.9676 111.182 68.9327 108.152 70.5676C107.141 71.1137 105.963 70.6457 105.421 69.6222C104.584 68.0419 102.945 66.9666 101.051 66.9666H100.055V67.9766C100.055 70.466 101.834 72.5224 104.171 72.9385V73.1149C101.834 73.531 100.055 75.5875 100.055 78.0768V79.0869H101.051C102.945 79.0869 104.584 78.0115 105.421 76.4312C105.963 75.4077 107.141 74.9397 108.152 75.4858C111.263 77.1644 115.569 79.0869 118.98 79.0869C120.445 79.0869 121.727 78.7313 122.827 78.1933V67.8601C121.727 67.3221 120.445 66.9666 118.98 66.9666Z" fill="#FFF2A0"/>
<path id="Vector_2" d="M122.827 67.8601C126.272 69.5462 127.945 73.0267 127.945 73.0267C127.945 73.0267 126.272 76.5073 122.827 78.1933C121.117 77.1268 119.977 75.2117 119.977 73.0267C119.977 70.8417 121.117 68.9267 122.827 67.8601Z" fill="#FCE8D0"/>
<path id="Vector_3" d="M114.109 65.5532C113.499 65.1687 112.779 64.9465 112.008 64.9465H110.016C110.016 66.4717 110.571 67.8648 111.488 68.9301L118.976 66.9666C117.249 66.9666 115.576 66.4784 114.109 65.5532Z" fill="#FF7D97"/>
</g>
<g id="Group_3">
<path id="Vector_4" d="M123.961 73.7001C124.328 73.7001 124.625 73.3986 124.625 73.0267C124.625 72.6549 124.328 72.3534 123.961 72.3534C123.594 72.3534 123.297 72.6549 123.297 73.0267C123.297 73.3986 123.594 73.7001 123.961 73.7001Z" fill="black"/>
<path id="Vector_5" d="M116.656 73.0267C116.656 72.6549 116.359 72.3534 115.992 72.3534H114C113.633 72.3534 113.336 72.6549 113.336 73.0267C113.336 73.3986 113.633 73.7001 114 73.7001H115.992C116.359 73.7001 116.656 73.3986 116.656 73.0267Z" fill="black"/>
<path id="Vector_6" d="M112.672 78.2788C113.039 78.2788 113.336 77.9774 113.336 77.6055C113.336 77.2336 113.039 76.9321 112.672 76.9321C112.305 76.9321 112.008 77.2336 112.008 77.6055C112.008 77.9774 112.305 78.2788 112.672 78.2788Z" fill="black"/>
<path id="Vector_7" d="M99.3906 78.0769V79.0869C99.3906 79.4588 99.6879 79.7602 100.055 79.7602H101.051C103.124 79.7602 105.023 78.6067 106.006 76.7497C106.396 76.0138 107.184 75.7258 107.84 76.0803C108.446 76.4074 109.053 76.7193 109.642 77.0072C109.972 77.1686 110.369 77.0279 110.528 76.6929C110.688 76.3578 110.549 75.9554 110.218 75.7939C109.645 75.5138 109.055 75.2102 108.464 74.8915C107.164 74.1894 105.57 74.7259 104.836 76.1128C104.084 77.5319 102.634 78.4135 101.051 78.4135H100.719V78.0769C100.719 75.954 102.219 74.1462 104.286 73.7781C104.604 73.7216 104.835 73.4419 104.835 73.115V72.9385C104.835 72.6116 104.604 72.3318 104.286 72.2754C102.219 71.9074 100.719 70.0995 100.719 67.9766V67.6399H101.051C102.634 67.6399 104.084 68.5216 104.836 69.9408C105.57 71.3277 107.164 71.8643 108.464 71.1621C111.403 69.5764 115.663 67.641 118.977 67.6399H118.98C119.841 67.6399 120.68 67.7742 121.489 68.0395C120.109 69.3036 119.312 71.0938 119.312 73.0267C119.312 74.9597 120.109 76.7499 121.489 78.014C120.68 78.2793 119.841 78.4135 118.98 78.4135C118.018 78.4135 116.906 78.2468 115.674 77.9179C115.32 77.8231 114.957 78.0378 114.863 78.3975C114.77 78.757 114.981 79.1254 115.336 79.2202C116.677 79.5785 117.904 79.7602 118.98 79.7602C123.291 79.7602 126.939 76.6557 128.542 73.3218C128.632 73.1356 128.632 72.9179 128.542 72.7316C126.762 69.0305 123.042 66.2932 118.98 66.2932C118.98 66.2932 118.979 66.2934 118.978 66.2934C118.978 66.2934 118.977 66.2932 118.976 66.2932C117.383 66.2932 115.821 65.8396 114.46 64.9815C113.725 64.5181 112.877 64.2732 112.008 64.2732H110.016C109.649 64.2732 109.352 64.5747 109.352 64.9465C109.352 66.2748 109.738 67.565 110.453 68.6605C109.605 69.0534 108.73 69.4931 107.84 69.9733C107.184 70.3276 106.396 70.0396 106.006 69.3038C105.023 67.4468 103.124 66.2932 101.051 66.2932H100.055C99.6879 66.2932 99.3906 66.5947 99.3906 66.9666V67.9766C99.3906 70.144 100.585 72.0604 102.394 73.0267C100.585 73.9931 99.3906 75.9096 99.3906 78.0769ZM127.19 73.0276C126.735 73.8335 125.299 76.0933 122.87 77.4147C121.468 76.4027 120.641 74.7886 120.641 73.0267C120.641 71.265 121.468 69.6509 122.87 68.6389C125.29 69.9566 126.733 72.2222 127.19 73.0276ZM112.008 65.6199C112.629 65.6199 113.234 65.7946 113.758 66.125C114.218 66.4149 114.698 66.6637 115.193 66.8722C114.107 67.1706 112.938 67.5839 111.693 68.1103C111.167 67.3761 110.833 66.5194 110.721 65.6199H112.008Z" fill="black"/>
</g>
</g>
</g>
<g id="fish color_2">
<g id="Group_4">
<g id="Group_5">
<path id="Vector_8" d="M90.627 6.30762H90.6229C87.0732 6.30866 82.5989 8.33156 79.4803 10.0146C78.4392 10.5768 77.2265 10.095 76.6687 9.04142C75.8073 7.41459 74.1202 6.30762 72.1699 6.30762H71.1445V7.34735C71.1445 9.90994 72.9759 12.0268 75.3821 12.4552V12.6368C72.9759 13.0652 71.1445 15.1821 71.1445 17.7447V18.7844H72.1699C74.1202 18.7844 75.8073 17.6774 76.6687 16.0506C77.2265 14.997 78.4392 14.5153 79.4803 15.0774C82.6822 16.8054 87.1146 18.7844 90.627 18.7844C92.135 18.7844 93.4543 18.4184 94.587 17.8646V7.22743C93.4543 6.6736 92.135 6.30762 90.627 6.30762Z" fill="#FFF2A0"/>
<path id="Vector_9" d="M94.587 7.22742C98.1328 8.96308 99.8555 12.546 99.8555 12.546C99.8555 12.546 98.1328 16.1289 94.587 17.8646C92.8268 16.7666 91.6523 14.7953 91.6523 12.546C91.6523 10.2967 92.8268 8.32537 94.587 7.22742Z" fill="#FCE8D0"/>
<path id="Vector_10" d="M85.6121 4.85268C84.9846 4.45689 84.2429 4.22815 83.4492 4.22815H81.3984C81.3984 5.79814 81.9699 7.23228 82.914 8.32885L90.6229 6.30761C88.8441 6.30761 87.1229 5.80508 85.6121 4.85268Z" fill="#FF7D97"/>
</g>
<g id="Group_6">
<path id="Vector_11" d="M95.7539 13.2392C96.1314 13.2392 96.4375 12.9289 96.4375 12.5461C96.4375 12.1632 96.1314 11.8529 95.7539 11.8529C95.3764 11.8529 95.0703 12.1632 95.0703 12.5461C95.0703 12.9289 95.3764 13.2392 95.7539 13.2392Z" fill="black"/>
<path id="Vector_12" d="M88.2344 12.5461C88.2344 12.1632 87.9283 11.8529 87.5508 11.8529H85.5C85.1225 11.8529 84.8164 12.1632 84.8164 12.5461C84.8164 12.9289 85.1225 13.2392 85.5 13.2392H87.5508C87.9283 13.2392 88.2344 12.9289 88.2344 12.5461Z" fill="black"/>
<path id="Vector_13" d="M84.1328 17.9526C84.5104 17.9526 84.8164 17.6423 84.8164 17.2594C84.8164 16.8766 84.5104 16.5663 84.1328 16.5663C83.7553 16.5663 83.4492 16.8766 83.4492 17.2594C83.4492 17.6423 83.7553 17.9526 84.1328 17.9526Z" fill="black"/>
<path id="Vector_14" d="M70.4609 17.7447V18.7844C70.4609 19.1673 70.767 19.4776 71.1445 19.4776H72.1699C74.3042 19.4776 76.2588 18.2901 77.271 16.3785C77.672 15.6209 78.4837 15.3245 79.1591 15.6894C79.7831 16.0261 80.4071 16.3472 81.0137 16.6436C81.3539 16.8097 81.7625 16.6648 81.9263 16.32C82.0902 15.9751 81.9473 15.5608 81.6072 15.3946C81.017 15.1063 80.4095 14.7937 79.8016 14.4657C78.4629 13.7428 76.8223 14.2951 76.0664 15.7228C75.2929 17.1837 73.7998 18.0913 72.1699 18.0913H71.8281V17.7447C71.8281 15.5594 73.3725 13.6984 75.5004 13.3195C75.8273 13.2614 76.0658 12.9734 76.0658 12.6368V12.4552C76.0658 12.1187 75.8274 11.8307 75.5004 11.7726C73.3725 11.3937 71.8281 9.53269 71.8281 7.34738V7.00081H72.1699C73.7998 7.00081 75.2929 7.90835 76.0664 9.36932C76.8223 10.7971 78.463 11.3494 79.8015 10.6266C82.8263 8.99425 87.2119 7.00185 90.6231 7.00081H90.627C91.5123 7.00081 92.3768 7.13902 93.209 7.41212C91.7886 8.71338 90.9688 10.5563 90.9688 12.546C90.9688 14.5358 91.7886 16.3787 93.209 17.68C92.3767 17.9531 91.5123 18.0913 90.627 18.0913C89.6359 18.0913 88.491 17.9196 87.2238 17.581C86.8587 17.4835 86.4847 17.7045 86.3885 18.0747C86.2924 18.4449 86.5103 18.8241 86.8754 18.9216C88.2563 19.2905 89.5185 19.4776 90.627 19.4776C95.0642 19.4776 98.8193 16.2817 100.47 12.8498C100.562 12.6581 100.562 12.434 100.47 12.2422C98.6375 8.43224 94.8082 5.6145 90.627 5.6145C90.6263 5.6145 90.6256 5.61464 90.6249 5.61464C90.6242 5.61464 90.6235 5.6145 90.6229 5.6145C88.9823 5.6145 87.3744 5.14752 85.9732 4.26416C85.2169 3.78713 84.3441 3.53503 83.4492 3.53503H81.3984C81.0209 3.53503 80.7148 3.84536 80.7148 4.22819C80.7148 5.59551 81.1128 6.92366 81.8484 8.05142C80.9762 8.45588 80.0751 8.90844 79.1589 9.40279C78.4837 9.76746 77.672 9.47107 77.2709 8.71359C76.2588 6.80201 74.3042 5.6145 72.1699 5.6145H71.1445C70.767 5.6145 70.4609 5.92482 70.4609 6.30765V7.34738C70.4609 9.57851 71.6904 11.5512 73.5525 12.546C71.6904 13.5409 70.4609 15.5136 70.4609 17.7447ZM99.0779 12.5469C98.6096 13.3765 97.1315 15.7028 94.6311 17.0631C93.1873 16.0212 92.3359 14.3597 92.3359 12.546C92.3359 10.7325 93.1872 9.07091 94.631 8.02917C97.1223 9.3856 98.6079 11.7179 99.0779 12.5469ZM83.4492 4.92134C84.0887 4.92134 84.7117 5.10115 85.2512 5.44135C85.7246 5.73975 86.2189 5.9958 86.7282 6.21047C85.6097 6.51761 84.4068 6.94314 83.1251 7.48504C82.5838 6.72916 82.2397 5.84733 82.1248 4.92134H83.4492Z" fill="black"/>
</g>
</g>
</g>
<g id="fish color_3">
<g id="Group_7">
<g id="Group_8">
<path id="Vector_15" d="M22.627 12.3915H22.6229C19.0732 12.3925 14.5989 14.4154 11.4803 16.0985C10.4392 16.6606 9.22646 16.1789 8.66865 15.1253C7.80732 13.4984 6.12021 12.3915 4.16992 12.3915H3.14453V13.4312C3.14453 15.9938 4.97588 18.1107 7.38213 18.5391V18.7207C4.97588 19.149 3.14453 21.2659 3.14453 23.8285V24.8683H4.16992C6.12021 24.8683 7.80732 23.7613 8.66865 22.1345C9.22646 21.0809 10.4392 20.5991 11.4803 21.1613C14.6822 22.8893 19.1146 24.8683 22.627 24.8683C24.135 24.8683 25.4543 24.5023 26.587 23.9484V13.3113C25.4543 12.7575 24.135 12.3915 22.627 12.3915Z" fill="#FFF2A0"/>
<path id="Vector_16" d="M26.587 13.3113C30.1328 15.0469 31.8555 18.6299 31.8555 18.6299C31.8555 18.6299 30.1328 22.2128 26.587 23.9484C24.8268 22.8505 23.6523 20.8791 23.6523 18.6299C23.6523 16.3806 24.8268 14.4092 26.587 13.3113Z" fill="#FCE8D0"/>
<path id="Vector_17" d="M17.6121 10.9365C16.9846 10.5408 16.2429 10.312 15.4492 10.312H13.3984C13.3984 11.882 13.9699 13.3161 14.914 14.4127L22.6229 12.3915C20.8441 12.3915 19.1229 11.8889 17.6121 10.9365Z" fill="#FF7D97"/>
</g>
<g id="Group_9">
<path id="Vector_18" d="M27.7539 19.3231C28.1314 19.3231 28.4375 19.0127 28.4375 18.6299C28.4375 18.2471 28.1314 17.9368 27.7539 17.9368C27.3764 17.9368 27.0703 18.2471 27.0703 18.6299C27.0703 19.0127 27.3764 19.3231 27.7539 19.3231Z" fill="black"/>
<path id="Vector_19" d="M20.2344 18.6299C20.2344 18.2471 19.9283 17.9368 19.5508 17.9368H17.5C17.1225 17.9368 16.8164 18.2471 16.8164 18.6299C16.8164 19.0128 17.1225 19.3231 17.5 19.3231H19.5508C19.9283 19.3231 20.2344 19.0128 20.2344 18.6299Z" fill="black"/>
<path id="Vector_20" d="M16.1328 24.0365C16.5104 24.0365 16.8164 23.7261 16.8164 23.3433C16.8164 22.9605 16.5104 22.6501 16.1328 22.6501C15.7553 22.6501 15.4492 22.9605 15.4492 23.3433C15.4492 23.7261 15.7553 24.0365 16.1328 24.0365Z" fill="black"/>
<path id="Vector_21" d="M2.46094 23.8286V24.8683C2.46094 25.2511 2.76698 25.5615 3.14453 25.5615H4.16992C6.30424 25.5615 8.25884 24.3739 9.27097 22.4624C9.67203 21.7048 10.4837 21.4083 11.1591 21.7732C11.7831 22.11 12.4071 22.431 13.0137 22.7274C13.3539 22.8936 13.7625 22.7487 13.9263 22.4039C14.0902 22.0589 13.9473 21.6447 13.6072 21.4785C13.017 21.1901 12.4095 20.8776 11.8016 20.5495C10.4629 19.8267 8.82232 20.379 8.06641 21.8067C7.29285 23.2676 5.79981 24.1751 4.16992 24.1751H3.82812V23.8286C3.82812 21.6433 5.3725 19.7823 7.50039 19.4034C7.82729 19.3452 8.06579 19.0572 8.06579 18.7207V18.5391C8.06579 18.2026 7.82735 17.9146 7.50039 17.8564C5.3725 17.4776 3.82812 15.6166 3.82812 13.4312V13.0847H4.16992C5.79981 13.0847 7.29285 13.9922 8.06641 15.4532C8.82232 16.8809 10.463 17.4332 11.8015 16.7104C14.8263 15.0781 19.2119 13.0857 22.6231 13.0847H22.627C23.5123 13.0847 24.3768 13.2229 25.209 13.496C23.7886 14.7972 22.9688 16.6401 22.9688 18.6299C22.9688 20.6197 23.7886 22.4626 25.209 23.7638C24.3767 24.0369 23.5123 24.1751 22.627 24.1751C21.6359 24.1751 20.491 24.0034 19.2238 23.6649C18.8587 23.5673 18.4847 23.7884 18.3885 24.1586C18.2924 24.5287 18.5103 24.9079 18.8754 25.0055C20.2563 25.3744 21.5185 25.5615 22.627 25.5615C27.0642 25.5615 30.8193 22.3656 32.47 18.9336C32.5621 18.7419 32.5621 18.5178 32.47 18.3261C30.6375 14.5161 26.8082 11.6984 22.627 11.6984C22.6263 11.6984 22.6256 11.6985 22.6249 11.6985C22.6242 11.6985 22.6235 11.6984 22.6229 11.6984C20.9823 11.6984 19.3744 11.2314 17.9732 10.348C17.2169 9.871 16.3441 9.6189 15.4492 9.6189H13.3984C13.0209 9.6189 12.7148 9.92922 12.7148 10.3121C12.7148 11.6794 13.1128 13.0075 13.8484 14.1353C12.9762 14.5397 12.0751 14.9923 11.1589 15.4867C10.4837 15.8513 9.67196 15.5549 9.2709 14.7975C8.25884 12.8859 6.30424 11.6984 4.16992 11.6984H3.14453C2.76698 11.6984 2.46094 12.0087 2.46094 12.3915V13.4312C2.46094 15.6624 3.69045 17.6351 5.55249 18.6299C3.69045 19.6247 2.46094 21.5975 2.46094 23.8286ZM31.0779 18.6307C30.6096 19.4604 29.1315 21.7867 26.6311 23.1469C25.1873 22.1051 24.3359 20.4435 24.3359 18.6299C24.3359 16.8163 25.1872 15.1548 26.631 14.113C29.1223 15.4695 30.6079 17.8017 31.0779 18.6307ZM15.4492 11.0052C16.0887 11.0052 16.7117 11.185 17.2512 11.5252C17.7246 11.8236 18.2189 12.0797 18.7282 12.2943C17.6097 12.6015 16.4068 13.027 15.1251 13.5689C14.5838 12.813 14.2397 11.9312 14.1248 11.0052H15.4492Z" fill="black"/>
</g>
</g>
</g>
<g id="fish color_4">
<g id="Group_10">
<g id="Group_11">
<path id="Vector_22" d="M66.627 116.652H66.6229C63.0732 116.653 58.5989 118.618 55.4803 120.253C54.4392 120.799 53.2265 120.331 52.6687 119.308C51.8073 117.727 50.1202 116.652 48.1699 116.652H47.1445V117.662C47.1445 120.151 48.9759 122.208 51.3821 122.624V122.8C48.9759 123.216 47.1445 125.273 47.1445 127.762V128.772H48.1699C50.1202 128.772 51.8073 127.697 52.6687 126.117C53.2265 125.093 54.4392 124.625 55.4803 125.171C58.6822 126.85 63.1146 128.772 66.627 128.772C68.135 128.772 69.4543 128.417 70.587 127.879V117.546C69.4543 117.008 68.135 116.652 66.627 116.652Z" fill="#FFF2A0"/>
<path id="Vector_23" d="M70.587 117.546C74.1328 119.232 75.8555 122.712 75.8555 122.712C75.8555 122.712 74.1328 126.193 70.587 127.879C68.8268 126.812 67.6523 124.897 67.6523 122.712C67.6523 120.527 68.8268 118.612 70.587 117.546Z" fill="#FCE8D0"/>
<path id="Vector_24" d="M61.6121 115.239C60.9846 114.854 60.2429 114.632 59.4492 114.632H57.3984C57.3984 116.157 57.9699 117.55 58.914 118.615L66.6229 116.652C64.8441 116.652 63.1229 116.164 61.6121 115.239Z" fill="#FF7D97"/>
</g>
<g id="Group_12">
<path id="Vector_25" d="M71.7539 123.386C72.1314 123.386 72.4375 123.084 72.4375 122.712C72.4375 122.34 72.1314 122.039 71.7539 122.039C71.3764 122.039 71.0703 122.34 71.0703 122.712C71.0703 123.084 71.3764 123.386 71.7539 123.386Z" fill="black"/>
<path id="Vector_26" d="M64.2344 122.712C64.2344 122.34 63.9283 122.039 63.5508 122.039H61.5C61.1225 122.039 60.8164 122.34 60.8164 122.712C60.8164 123.084 61.1225 123.386 61.5 123.386H63.5508C63.9283 123.386 64.2344 123.084 64.2344 122.712Z" fill="black"/>
<path id="Vector_27" d="M60.1328 127.964C60.5104 127.964 60.8164 127.663 60.8164 127.291C60.8164 126.919 60.5104 126.618 60.1328 126.618C59.7553 126.618 59.4492 126.919 59.4492 127.291C59.4492 127.663 59.7553 127.964 60.1328 127.964Z" fill="black"/>
<path id="Vector_28" d="M46.4609 127.762V128.772C46.4609 129.144 46.767 129.446 47.1445 129.446H48.1699C50.3042 129.446 52.2588 128.292 53.271 126.435C53.672 125.699 54.4837 125.411 55.1591 125.766C55.7831 126.093 56.4071 126.405 57.0137 126.693C57.3539 126.854 57.7625 126.713 57.9263 126.378C58.0902 126.043 57.9473 125.641 57.6072 125.479C57.017 125.199 56.4095 124.896 55.8016 124.577C54.4629 123.875 52.8223 124.411 52.0664 125.798C51.2929 127.217 49.7998 128.099 48.1699 128.099H47.8281V127.762C47.8281 125.639 49.3725 123.832 51.5004 123.464C51.8273 123.407 52.0658 123.127 52.0658 122.8V122.624C52.0658 122.297 51.8274 122.017 51.5004 121.961C49.3725 121.593 47.8281 119.785 47.8281 117.662V117.325H48.1699C49.7998 117.325 51.2929 118.207 52.0664 119.626C52.8223 121.013 54.463 121.55 55.8015 120.848C58.8263 119.262 63.2119 117.326 66.6231 117.325H66.627C67.5123 117.325 68.3768 117.46 69.209 117.725C67.7886 118.989 66.9688 120.779 66.9688 122.712C66.9688 124.645 67.7886 126.435 69.209 127.699C68.3767 127.965 67.5123 128.099 66.627 128.099C65.6359 128.099 64.491 127.932 63.2238 127.603C62.8587 127.509 62.4847 127.723 62.3885 128.083C62.2924 128.442 62.5103 128.811 62.8754 128.906C64.2563 129.264 65.5185 129.446 66.627 129.446C71.0642 129.446 74.8193 126.341 76.47 123.007C76.5621 122.821 76.5621 122.603 76.47 122.417C74.6375 118.716 70.8082 115.979 66.627 115.979C66.6263 115.979 66.6256 115.979 66.6249 115.979C66.6242 115.979 66.6235 115.979 66.6229 115.979C64.9823 115.979 63.3744 115.525 61.9732 114.667C61.2169 114.204 60.3441 113.959 59.4492 113.959H57.3984C57.0209 113.959 56.7148 114.26 56.7148 114.632C56.7148 115.96 57.1128 117.25 57.8484 118.346C56.9762 118.739 56.0751 119.178 55.1589 119.659C54.4837 120.013 53.672 119.725 53.2709 118.989C52.2588 117.132 50.3042 115.979 48.1699 115.979H47.1445C46.767 115.979 46.4609 116.28 46.4609 116.652V117.662C46.4609 119.829 47.6904 121.746 49.5525 122.712C47.6904 123.679 46.4609 125.595 46.4609 127.762ZM75.0779 122.713C74.6096 123.519 73.1315 125.779 70.6311 127.1C69.1873 126.088 68.3359 124.474 68.3359 122.712C68.3359 120.95 69.1872 119.336 70.631 118.324C73.1223 119.642 74.6079 121.908 75.0779 122.713ZM59.4492 115.305C60.0887 115.305 60.7117 115.48 61.2512 115.81C61.7246 116.1 62.2189 116.349 62.7282 116.558C61.6097 116.856 60.4068 117.269 59.1251 117.796C58.5838 117.061 58.2397 116.205 58.1248 115.305H59.4492Z" fill="black"/>
</g>
</g>
</g>
</g>
</svg>
