<svg width="111" height="111" viewBox="0 0 111 111" fill="none" xmlns="http://www.w3.org/2000/svg">
<g id="turtleSideView ">
<path id="Vector" d="M52.9738 70.4022C52.0939 70.4022 51.3809 71.1153 51.3809 71.9952C51.3809 72.8751 52.0939 73.5881 52.9738 73.5881C53.8537 73.5881 54.5668 72.8751 54.5668 71.9952C54.5668 71.1153 53.8537 70.4022 52.9738 70.4022ZM91.0691 47.935C90.6524 48.4135 90.0503 48.6878 89.4185 48.6878C88.7868 48.6878 88.1855 48.4135 87.7689 47.935C87.1786 47.2583 86.1514 47.188 85.4747 47.7775C84.7981 48.3677 84.7269 49.395 85.3172 50.0716C86.3512 51.2589 87.8459 51.9389 89.4185 51.9389C90.9903 51.9389 92.4859 51.2589 93.5199 50.0716C94.1102 49.3941 94.0399 48.3677 93.3624 47.7775C92.6857 47.1872 91.6585 47.2583 91.0691 47.935ZM98.701 47.1127V48.9233C98.701 49.8209 99.4293 50.5492 100.327 50.5492C101.225 50.5492 101.953 49.8209 101.953 48.9233V47.1127C101.953 46.2141 101.225 45.4867 100.327 45.4867C99.4293 45.4867 98.701 46.2141 98.701 47.1127ZM76.885 47.1127V48.9233C76.885 49.8209 77.6124 50.5492 78.511 50.5492C79.4086 50.5492 80.1369 49.8209 80.1369 48.9233V47.1127C80.1369 46.2141 79.4086 45.4867 78.511 45.4867C77.6124 45.4867 76.885 46.2141 76.885 47.1127ZM48.4253 75.9102C47.5454 75.9102 46.8324 76.6233 46.8324 77.5032C46.8324 78.3831 47.5454 79.0961 48.4253 79.0961C49.3052 79.0961 50.0183 78.3831 50.0183 77.5032C50.0183 76.6233 49.3052 75.9102 48.4253 75.9102ZM14.8726 72.2764C15.7516 72.2764 16.4656 71.5624 16.4656 70.6826C16.4656 69.8035 15.7516 69.0896 14.8726 69.0896C13.9927 69.0896 13.2797 69.8035 13.2797 70.6826C13.2797 71.5624 13.9927 72.2764 14.8726 72.2764ZM106.825 38.4857C106.265 37.7828 105.242 37.6676 104.54 38.2265C103.838 38.7863 103.722 39.8093 104.282 40.5122C106.55 43.3577 107.748 46.79 107.748 50.4375C107.748 57.2928 102.171 62.8686 95.3169 62.8686H79.1859C73.1452 62.8686 68.2317 57.9551 68.2317 51.9144C68.2317 42.3101 76.0449 34.4961 85.65 34.4961H91.8067C94.327 34.4961 96.7371 35.066 98.9695 36.1915C99.7714 36.5955 100.75 36.2728 101.154 35.4708C101.557 34.6689 101.235 33.6916 100.433 33.2876C97.7424 31.931 94.8393 31.2442 91.8067 31.2442H85.65C80.9855 31.2442 76.6775 32.7973 73.2147 35.4141C65.3473 28.5054 55.3162 24.7148 44.8075 24.7148C38.633 24.7148 32.6245 26.0436 27.1436 28.5088C27.0623 28.5384 26.9836 28.5757 26.9065 28.6197C20.0164 31.7692 13.9749 36.7191 9.51281 43.0977L7.21188 46.3852H6.85451C3.07496 46.3852 0 49.4602 0 53.2397C0 56.4536 2.22301 59.1568 5.21159 59.8944C6.29388 62.031 7.81062 63.9034 9.67287 65.4024C8.13666 67.8151 7.29911 70.6131 7.27963 73.5407C7.2737 74.4384 7.99693 75.1718 8.8946 75.1777H8.90561C9.7982 75.1777 10.5257 74.457 10.5316 73.5627C10.5536 70.3531 11.8146 67.3366 14.0825 65.0687L19.0561 60.0951H27.5611C28.7967 66.1662 26.9099 72.5253 22.491 76.9443L17.1701 82.2651C16.5477 82.8875 15.6932 83.1543 14.8277 82.9959C13.9622 82.8376 13.2576 82.2871 12.8952 81.4851L12.3676 80.3182C11.9984 79.4992 11.0355 79.1351 10.2166 79.5052C9.39848 79.8753 9.03433 80.8381 9.40441 81.6562L9.93116 82.8232C10.7281 84.5872 12.3405 85.8473 14.2442 86.1954C14.5965 86.2598 14.9505 86.2911 15.302 86.2911C16.8509 86.2911 18.3541 85.6796 19.4694 84.5643L24.7902 79.2435C27.6196 76.415 29.5631 72.9073 30.5133 69.1472H39.4486C38.3824 72.6524 38.5611 76.5115 40.1235 79.9718L41.4116 82.824C42.2085 84.5872 43.8209 85.8482 45.7247 86.1954C46.077 86.2598 46.4309 86.2911 46.7824 86.2911C48.3313 86.2911 49.8353 85.6805 50.9507 84.5652L51.9389 83.5769C52.8138 84.942 54.2204 85.8998 55.8404 86.1954C56.1927 86.2598 56.5467 86.2911 56.899 86.2911C58.4471 86.2911 59.9511 85.6805 61.0664 84.5652L66.3873 79.2443C69.2514 76.3802 71.2347 72.8268 72.1739 68.9109C74.6162 68.5002 76.9299 67.5551 78.992 66.1163C79.0563 66.1171 79.1207 66.1214 79.1859 66.1214H95.3169C103.964 66.1214 111 59.0856 111 50.4383C111 46.0465 109.556 41.9129 106.825 38.4857ZM62.4129 32.0631C65.3939 33.5349 68.1987 35.3845 70.7622 37.5897C68.7458 39.6857 67.1664 42.2034 66.1713 44.9972L59.1178 34.8382C60.4143 34.0253 61.5271 33.0937 62.4129 32.0631ZM63.176 46.3852H46.4335V38.4433C50.0208 38.2706 53.3718 37.5304 56.2012 36.3406L63.176 46.3852ZM44.8075 27.9668C49.8116 27.9668 54.698 28.8975 59.255 30.6717C58.4166 31.4593 57.375 32.1672 56.1758 32.7761C56.0793 32.8134 55.9844 32.8608 55.8938 32.9184C52.8984 34.3733 48.9792 35.2312 44.8075 35.2312C40.6367 35.2312 36.7183 34.3733 33.7229 32.9193C33.6315 32.8608 33.5358 32.8134 33.4384 32.7761C32.246 32.1698 31.2086 31.466 30.3727 30.6827C34.9162 28.9136 39.8026 27.9668 44.8075 27.9668ZM43.1815 38.4433V46.3852H26.4391L33.4138 36.3406C36.244 37.5304 39.5942 38.2706 43.1815 38.4433ZM12.177 44.9616C16.0743 39.3901 21.2766 34.9975 27.2114 32.0732C28.0964 33.0996 29.2058 34.0278 30.4981 34.8382L22.4808 46.3852H11.1803L12.177 44.9616ZM11.7832 62.7686C11.7545 62.7983 11.7274 62.8288 11.6986 62.8584C10.7086 62.0598 9.84139 61.1299 9.11394 60.0951H14.4576L11.7832 62.7686ZM6.85451 56.8431C4.86777 56.8431 3.25195 55.2265 3.25195 53.2397C3.25195 51.2538 4.86777 49.6372 6.85451 49.6372H8.05536C8.05621 49.6372 8.05621 49.638 8.05705 49.638C8.0579 49.638 8.05875 49.6372 8.05875 49.6372H23.3285L23.3294 49.638C23.3302 49.638 23.3311 49.6372 23.3311 49.6372H65.1051C65.023 50.3849 64.9798 51.1446 64.9798 51.9144C64.9798 53.6462 65.2923 55.3069 65.8622 56.8431H6.85451ZM40.8645 65.8952H31.0816C31.2679 63.9771 31.201 62.0268 30.869 60.0951H45.9389L43.2645 62.7695C42.3186 63.7146 41.5174 64.7689 40.8645 65.8952ZM48.6514 82.2651C48.0281 82.8875 47.1753 83.1543 46.309 82.9959C45.4427 82.8376 44.7381 82.2871 44.3756 81.4851L43.0875 78.6329C41.0237 74.0641 42.0196 68.6128 45.5638 65.0687L50.5374 60.0951H59.0424C60.2772 66.1662 58.3912 72.5253 53.9723 76.9443L48.6514 82.2651ZM64.0872 76.9443L58.7663 82.2651C58.1439 82.8875 57.2903 83.1543 56.4248 82.9959C55.5584 82.8376 54.8538 82.2871 54.4914 81.4851L54.3483 81.1676L56.2715 79.2435C59.1009 76.415 61.0436 72.9073 61.9937 69.1472H68.7458C67.8667 72.0858 66.2797 74.7517 64.0872 76.9443ZM70.6715 65.8292C70.6521 65.8309 70.6326 65.8326 70.6131 65.8351C70.1939 65.8741 69.7713 65.8952 69.3445 65.8952H62.562C62.7483 63.9771 62.6814 62.0268 62.3494 60.0951H67.5822C69.1565 62.3223 71.355 64.0779 73.9218 65.106C72.8768 65.4786 71.7886 65.7216 70.6715 65.8292Z" fill="black"/>
</g>
</svg>
