<svg width="375" height="210" viewBox="0 0 375 210" fill="none" xmlns="http://www.w3.org/2000/svg">
<g id="waves" clip-path="url(#clip0)">
<path id="Vector" d="M382.168 94.8843C354.356 94.8843 354.356 81.5957 326.545 81.5957C298.735 81.5957 298.734 94.8843 270.923 94.8843C243.112 94.8843 243.112 81.5957 215.303 81.5957C187.494 81.5957 187.494 94.8843 159.685 94.8843C131.877 94.8843 131.877 81.5957 104.069 81.5957C76.2609 81.5957 76.2609 94.8843 48.4509 94.8843C20.6409 94.8843 20.6409 81.5957 -7.16748 81.5957V115.117C20.6417 115.117 20.6417 128.405 48.4509 128.405C76.2601 128.405 76.2593 115.117 104.069 115.117C131.877 115.117 131.877 128.405 159.685 128.405C187.494 128.405 187.494 115.117 215.303 115.117C243.114 115.117 243.114 128.405 270.923 128.405C298.735 128.405 298.735 115.117 326.545 115.117C354.356 115.117 354.357 128.405 382.168 128.405" fill="#879150"/>
<path id="Vector_2" d="M382.168 61.3628C354.356 61.3628 354.356 48.0742 326.545 48.0742C298.735 48.0742 298.734 61.3628 270.923 61.3628C243.112 61.3628 243.112 48.0742 215.303 48.0742C187.494 48.0742 187.494 61.3628 159.685 61.3628C131.877 61.3628 131.877 48.0742 104.069 48.0742C76.2609 48.0742 76.2609 61.3628 48.4509 61.3628C20.6409 61.3628 20.6409 48.0742 -7.16748 48.0742V81.5953C20.6417 81.5953 20.6417 94.8839 48.4509 94.8839C76.2601 94.8839 76.2593 81.5953 104.069 81.5953C131.877 81.5953 131.877 94.8839 159.685 94.8839C187.494 94.8839 187.494 81.5953 215.303 81.5953C243.114 81.5953 243.114 94.8839 270.923 94.8839C298.735 94.8839 298.735 81.5953 326.545 81.5953C354.356 81.5953 354.357 94.8839 382.168 94.8839" fill="#6B7147"/>
<path id="Vector_3" d="M382.168 128.405C354.356 128.405 354.356 115.116 326.545 115.116C298.735 115.116 298.734 128.405 270.923 128.405C243.112 128.405 243.112 115.116 215.303 115.116C187.494 115.116 187.494 128.405 159.685 128.405C131.877 128.405 131.877 115.116 104.069 115.116C76.2609 115.116 76.2609 128.405 48.4509 128.405C20.6409 128.405 20.6409 115.116 -7.16748 115.116V148.637C20.6417 148.637 20.6417 161.926 48.4509 161.926C76.2601 161.926 76.2593 148.637 104.069 148.637C131.877 148.637 131.877 161.926 159.685 161.926C187.494 161.926 187.494 148.637 215.303 148.637C243.114 148.637 243.114 161.926 270.923 161.926C298.735 161.926 298.735 148.637 326.545 148.637C354.356 148.637 354.357 161.926 382.168 161.926" fill="#95A85E"/>
<path id="Vector_4" d="M-7.16779 51.6338C4.07915 51.6338 9.35118 54.1529 16.0243 57.3419C23.46 60.895 31.8884 64.9227 48.4514 64.9227C65.0137 64.9227 73.4412 60.8954 80.8778 57.3427C87.5508 54.1533 92.8229 51.6342 104.07 51.6342C115.316 51.6342 120.587 54.1533 127.261 57.3423C134.697 60.8954 143.124 64.9231 159.687 64.9231C176.249 64.9231 184.676 60.8963 192.113 57.3431C198.787 54.1537 204.059 51.6346 215.306 51.6346C226.553 51.6346 231.825 54.1537 238.499 57.3427C245.935 60.8958 254.364 64.9236 270.926 64.9236C287.488 64.9236 295.916 60.8967 303.353 57.3435C310.028 54.1541 315.3 51.635 326.548 51.635C337.796 51.635 343.069 54.1541 349.743 57.3435C357.179 60.8967 365.607 64.9236 382.17 64.9236C385.944 64.9236 389.001 63.3297 389.001 61.3642C389.001 59.3984 385.944 57.8049 382.17 57.8049C370.923 57.8049 365.65 55.2858 358.975 52.0964C351.539 48.5432 343.111 44.5164 326.548 44.5164C309.985 44.5164 301.557 48.5437 294.12 52.0964C287.446 55.2858 282.174 57.8049 270.927 57.8049C259.679 57.8049 254.407 55.2858 247.733 52.0964C240.296 48.5432 231.869 44.5164 215.306 44.5164C198.743 44.5164 190.315 48.5437 182.879 52.0972C176.206 55.2866 170.934 57.8053 159.687 57.8053C148.44 57.8053 143.169 55.2862 136.495 52.0972C129.06 48.5441 120.632 44.5164 104.07 44.5164C87.5075 44.5164 79.08 48.5437 71.6434 52.0964C64.9704 55.2858 59.6983 57.8049 48.4514 57.8049C37.2045 57.8049 31.9324 55.2858 25.2586 52.0964C17.822 48.5437 9.39447 44.5164 -7.16779 44.5164C-10.9412 44.5164 -13.9983 46.1102 -13.9983 48.0757C-13.9983 50.0411 -10.9412 51.6338 -7.16779 51.6338Z" fill="black"/>
<path id="Vector_5" d="M382.167 91.3245C370.92 91.3245 365.647 88.8053 358.972 85.6159C351.537 82.0628 343.108 78.0359 326.545 78.0359C309.982 78.0359 301.554 82.0632 294.117 85.6159C287.443 88.8053 282.171 91.3245 270.924 91.3245C259.676 91.3245 254.404 88.8053 247.729 85.6159C240.293 82.0628 231.866 78.0359 215.303 78.0359C198.74 78.0359 190.312 82.0632 182.876 85.6168C176.203 88.8061 170.931 91.3249 159.684 91.3249C148.438 91.3249 143.167 88.8057 136.492 85.6168C135.64 85.2095 134.788 84.8022 133.924 84.4007C131.108 83.0923 126.79 83.2223 124.28 84.6894C121.77 86.1569 122.018 88.407 124.834 89.715C125.65 90.0944 126.454 90.4787 127.259 90.863C134.695 94.4158 143.122 98.4431 159.684 98.4431C176.246 98.4431 184.673 94.4162 192.11 90.863C198.784 87.6737 204.056 85.1545 215.303 85.1545C226.55 85.1545 231.822 87.6737 238.496 90.8626C245.932 94.4158 254.361 98.4435 270.923 98.4435C287.485 98.4435 295.913 94.4166 303.35 90.8635C310.025 87.6741 315.297 85.1549 326.545 85.1549C337.793 85.1549 343.066 87.6741 349.74 90.8635C357.176 94.4166 365.604 98.4435 382.167 98.4435C385.941 98.4435 388.998 96.8496 388.998 94.8842C388.998 92.9179 385.94 91.3245 382.167 91.3245Z" fill="black"/>
<path id="Vector_6" d="M-7.1678 85.1549C4.07914 85.1549 9.35117 87.6741 16.0242 90.863C23.46 94.4162 31.8883 98.4439 48.4514 98.4439C65.0136 98.4439 73.4412 94.4166 80.8777 90.8639C87.5508 87.6745 92.8228 85.1553 104.07 85.1553C106.524 85.1553 108.735 85.2739 110.829 85.5175C114.508 85.9457 118.162 84.7386 118.985 82.8199C119.807 80.9012 117.489 78.9985 113.808 78.5699C110.766 78.2159 107.49 78.0359 104.07 78.0359C87.5075 78.0359 79.08 82.0632 71.6434 85.6159C64.9704 88.8053 59.6983 91.3245 48.4514 91.3245C37.2044 91.3245 31.9324 88.8053 25.2586 85.6159C17.8228 82.0628 9.39446 78.0359 -7.1678 78.0359C-10.9412 78.0359 -13.9983 79.6297 -13.9983 81.5952C-13.9983 83.5607 -10.9412 85.1549 -7.1678 85.1549Z" fill="black"/>
<path id="Vector_7" d="M382.168 158.366C370.92 158.366 365.647 155.847 358.973 152.658C351.537 149.105 343.108 145.078 326.545 145.078C309.982 145.078 301.554 149.105 294.117 152.658C287.444 155.847 282.172 158.366 270.924 158.366C259.676 158.366 254.404 155.847 247.729 152.658C240.294 149.105 231.866 145.078 215.303 145.078C198.74 145.078 190.312 149.105 182.876 152.659C176.203 155.848 170.931 158.367 159.684 158.367C148.438 158.367 143.166 155.848 136.493 152.659C129.057 149.106 120.63 145.078 104.067 145.078C87.504 145.078 79.0773 149.105 71.6407 152.658C64.9676 155.847 59.6956 158.366 48.4487 158.366C44.6753 158.366 41.6182 159.96 41.6182 161.926C41.6182 163.891 44.6753 165.485 48.4487 165.485C65.0109 165.485 73.4384 161.458 80.875 157.905C87.5481 154.716 92.8201 152.197 104.067 152.197C115.313 152.197 120.584 154.716 127.258 157.905C134.694 161.458 143.121 165.485 159.684 165.485C176.247 165.485 184.674 161.459 192.11 157.905C198.784 154.716 204.056 152.197 215.303 152.197C226.55 152.197 231.822 154.716 238.496 157.905C245.932 161.458 254.361 165.485 270.923 165.485C287.485 165.485 295.914 161.459 303.35 157.905C310.026 154.716 315.297 152.197 326.545 152.197C337.793 152.197 343.066 154.716 349.741 157.905C357.176 161.459 365.605 165.485 382.168 165.485C385.941 165.485 388.998 163.892 388.998 161.926C388.998 159.961 385.94 158.366 382.168 158.366Z" fill="black"/>
<path id="Vector_8" d="M32.4614 155.824C29.9726 154.911 27.6829 153.817 25.2578 152.659C17.822 149.105 9.39373 145.078 -7.16853 145.078C-10.9419 145.078 -13.999 146.671 -13.999 148.637C-13.999 150.603 -10.9419 152.196 -7.16853 152.196C4.07841 152.196 9.35044 154.715 16.0243 157.905C18.6611 159.164 21.3861 160.467 24.5943 161.644C25.7899 162.083 27.1618 162.294 28.5212 162.294C30.6676 162.294 32.7825 161.768 34.1128 160.784C36.2852 159.177 35.5453 156.957 32.4614 155.824Z" fill="black"/>
<path id="Vector_9" d="M382.168 124.846C370.92 124.846 365.647 122.326 358.973 119.137C351.537 115.584 343.109 111.557 326.546 111.557C309.983 111.557 301.556 115.584 294.118 119.137C291.338 120.465 291.15 122.716 293.7 124.166C296.249 125.615 300.569 125.712 303.352 124.384C310.026 121.195 315.299 118.676 326.546 118.676C337.793 118.676 343.066 121.195 349.741 124.384C357.177 127.937 365.605 131.964 382.168 131.964C385.941 131.964 388.998 130.37 388.998 128.405C388.998 126.439 385.94 124.846 382.168 124.846Z" fill="black"/>
<path id="Vector_10" d="M-7.16774 118.676C4.0792 118.676 9.35123 121.195 16.0243 124.384C23.4601 127.937 31.8884 131.965 48.4514 131.965C65.0137 131.965 73.4412 127.937 80.8778 124.384C87.5509 121.195 92.8229 118.676 104.07 118.676C115.316 118.676 120.587 121.195 127.261 124.384C134.697 127.937 143.124 131.965 159.687 131.965C176.249 131.965 184.676 127.938 192.113 124.384C198.787 121.195 204.059 118.676 215.306 118.676C226.553 118.676 231.825 121.195 238.499 124.384C245.935 127.937 254.364 131.965 270.926 131.965C274.793 131.965 278.472 131.735 281.859 131.282C285.512 130.793 287.714 128.853 286.776 126.95C285.838 125.046 282.12 123.898 278.461 124.387C276.151 124.696 273.686 124.846 270.926 124.846C259.678 124.846 254.406 122.327 247.731 119.138C240.296 115.585 231.868 111.558 215.305 111.558C198.742 111.558 190.314 115.585 182.878 119.139C176.205 122.328 170.933 124.847 159.686 124.847C148.44 124.847 143.168 122.328 136.495 119.138C129.059 115.585 120.632 111.558 104.069 111.558C87.506 111.558 79.0793 115.585 71.6427 119.138C64.9696 122.328 59.6976 124.847 48.4507 124.847C37.2037 124.847 31.9317 122.328 25.2578 119.138C17.822 115.585 9.39373 111.558 -7.16853 111.558C-10.9419 111.558 -13.999 113.152 -13.999 115.117C-13.999 117.083 -10.9411 118.676 -7.16774 118.676Z" fill="black"/>
</g>
<defs>
<clipPath id="clip0">
<rect width="403" height="210" fill="white" transform="translate(-14)"/>
</clipPath>
</defs>
</svg>
